<svg width="45" height="13" viewBox="0 0 45 13" fill="none" xmlns="http://www.w3.org/2000/svg">
<g clip-path="url(#clip0_812_1181)">
<rect width="45" height="13" fill="#F5F5F5"/>
<path d="M21.0185 0L19.9038 0.732464L21.1841 2.56363L19 2.40439V3.77378L21.1841 3.61455L19.8887 5.42979L21.0335 6.14633L21.9373 4.04448L22.8712 6.14633L24.0009 5.44571L22.7055 3.61455L24.8746 3.77378V2.40439L22.7055 2.56363L23.9859 0.716541L22.8561 0L21.9373 2.11778L21.0185 0Z" fill="#111111"/>
<path d="M30.5812 0L29.4665 0.732464L30.7468 2.56363L28.5627 2.40439V3.77378L30.7468 3.61455L29.4514 5.42979L30.5962 6.14633L31.5 4.04448L32.4339 6.14633L33.5636 5.44571L32.2682 3.61455L34.4373 3.77378V2.40439L32.2682 2.56363L33.5486 0.716541L32.4188 0L31.5 2.11778L30.5812 0Z" fill="#111111"/>
<path d="M40.1439 0L39.0292 0.732464L40.3095 2.56363L38.1254 2.40439V3.77378L40.3095 3.61455L39.0141 5.42979L40.1589 6.14633L41.0627 4.04448L41.9966 6.14633L43.1263 5.44571L41.8309 3.61455L44 3.77378V2.40439L41.8309 2.56363L43.1113 0.716541L41.9815 0L41.0627 2.11778L40.1439 0Z" fill="#111111"/>
<path d="M0.5 -0.5L9 12H44.5" stroke="black"/>
</g>
<defs>
<clipPath id="clip0_812_1181">
<rect width="45" height="13" fill="white"/>
</clipPath>
</defs>
</svg>
