<svg width="131" height="130" viewBox="0 0 131 130" fill="none" xmlns="http://www.w3.org/2000/svg">
<path d="M92.0812 65.8069C71.3375 86.3682 45.9694 110.786 26.5352 127.185V29.3296H128.177C127.814 29.704 127.394 30.1373 126.919 30.6261C125.048 32.5531 122.33 35.3429 118.946 38.7934C112.178 45.6946 102.744 55.2381 92.0812 65.8069Z" fill="white"/>
<path d="M92.0812 65.8069C71.3375 86.3682 45.9694 110.786 26.5352 127.185V29.3296H128.177C127.814 29.704 127.394 30.1373 126.919 30.6261C125.048 32.5531 122.33 35.3429 118.946 38.7934C112.178 45.6946 102.744 55.2381 92.0812 65.8069Z" fill="url(#paint0_linear_432_3122)"/>
<path d="M92.0812 65.8069C71.3375 86.3682 45.9694 110.786 26.5352 127.185V29.3296H128.177C127.814 29.704 127.394 30.1373 126.919 30.6261C125.048 32.5531 122.33 35.3429 118.946 38.7934C112.178 45.6946 102.744 55.2381 92.0812 65.8069Z" stroke="#2D2D2D" stroke-width="2"/>
<circle cx="39.5352" cy="42.3296" r="3" fill="#2D2D2D"/>
<circle cx="39.5352" cy="94.3296" r="3" fill="#2D2D2D"/>
<circle cx="39.5352" cy="68.3296" r="3" fill="#2D2D2D"/>
<circle cx="65.5352" cy="42.3296" r="3" fill="#2D2D2D"/>
<circle cx="65.5352" cy="68.3296" r="3" fill="#2D2D2D"/>
<circle cx="91.5352" cy="42.3296" r="3" fill="#2D2D2D"/>
<path d="M105.521 1.32959H1.53516V101.342" stroke="#2D2D2D" stroke-width="2"/>
<path d="M1.53516 1.32959L26.5352 29.3296" stroke="#2D2D2D" stroke-width="2"/>
<path d="M104.794 1L129.794 29" stroke="#2D2D2D" stroke-width="2"/>
<path d="M1.30371 100.678L26.3037 128.678" stroke="#2D2D2D" stroke-width="2"/>
<defs>
<linearGradient id="paint0_linear_432_3122" x1="78.0352" y1="28.3296" x2="78.0352" y2="129.33" gradientUnits="userSpaceOnUse">
<stop stop-color="#20C8BF"/>
<stop offset="1" stop-color="#F8E07C"/>
</linearGradient>
</defs>
</svg>
