<svg width="122" height="138" viewBox="0 0 122 138" fill="none" xmlns="http://www.w3.org/2000/svg">
<rect x="16.8389" y="1.59838" width="98" height="98" transform="rotate(5.4103 16.8389 1.59838)" fill="white" stroke="#2D2D2D" stroke-width="2"/>
<rect x="1.00049" y="17.0002" width="120" height="120" fill="white" stroke="#2D2D2D" stroke-width="2"/>
<path d="M58.0698 81.6803C60.306 81.6803 62.1253 79.861 62.1253 77.6248V70.0072C62.1253 69.3857 61.6216 68.8819 61 68.8819C60.3785 68.8819 59.8747 69.3857 59.8747 70.0072V77.6248C59.8747 78.6199 59.0654 79.4292 58.0703 79.4292C57.4488 79.4292 56.945 79.933 56.945 80.5545H57.0445L56.945 80.5544C56.9445 81.1765 57.4483 81.6803 58.0698 81.6803Z" fill="#2D2D2D" stroke="#2D2D2D" stroke-width="0.2"/>
<path d="M49.4 70.7432V73.6729C49.4 74.4156 50.0024 75.018 50.7451 75.018C51.4877 75.018 52.0901 74.4156 52.0901 73.6729V70.7432C52.0901 70.0006 51.4877 69.3982 50.7451 69.3982C50.0024 69.3982 49.4 70.0006 49.4 70.7432Z" fill="#2D2D2D" stroke="#2D2D2D" stroke-width="0.2"/>
<path d="M71.2543 75.0186C71.997 75.0186 72.5994 74.4162 72.5994 73.6735V70.7438C72.5994 70.0012 71.997 69.3988 71.2543 69.3988C70.5117 69.3988 69.9093 70.0012 69.9093 70.7438V73.6735C69.9093 74.4162 70.5117 75.0186 71.2543 75.0186Z" fill="#2D2D2D" stroke="#2D2D2D" stroke-width="0.2"/>
<path d="M53.156 86.4504L53.156 86.4503C52.6781 86.0532 51.9685 86.1188 51.5713 86.5962L51.5713 86.5962C51.1742 87.0741 51.2392 87.7837 51.7177 88.1809C54.325 90.3481 57.5208 91.4312 60.7169 91.4312C63.9124 91.4312 67.1087 90.3476 69.716 88.1809L69.7161 88.1809C70.1929 87.7837 70.2586 87.0742 69.8609 86.5962C69.4637 86.1183 68.7541 86.0526 68.2762 86.4504C63.8957 90.0914 57.5365 90.0914 53.156 86.4504Z" fill="#2D2D2D" stroke="#2D2D2D" stroke-width="0.2"/>
<path d="M29.9005 61.676L29.9005 61.6761C29.901 62.297 30.4048 62.8008 31.0263 62.8008C31.6478 62.8008 32.1516 62.297 32.1516 61.6755V56.5557C32.1516 51.922 35.9217 48.1518 40.5554 48.1518H45.6758C46.2973 48.1518 46.801 47.648 46.801 47.0265C46.801 46.405 46.2973 45.9012 45.6758 45.9012H40.5554C34.6802 45.9012 29.9005 50.6809 29.9005 56.5562L29.9005 61.676Z" fill="#2D2D2D" stroke="#2D2D2D" stroke-width="0.2"/>
<path d="M92.1004 92.3246V92.3245C92.0998 91.7031 91.5961 91.1993 90.9746 91.1993C90.353 91.1993 89.8493 91.7031 89.8493 92.3246V97.4449C89.8493 102.079 86.0791 105.849 81.4454 105.849H76.3251C75.7036 105.849 75.1998 106.353 75.1998 106.974C75.1998 107.596 75.7036 108.099 76.3251 108.099H81.4454C87.3207 108.099 92.1004 103.32 92.1004 97.4444V92.3246Z" fill="#2D2D2D" stroke="#2D2D2D" stroke-width="0.2"/>
<path d="M46.8015 106.975V106.974C46.801 106.353 46.2973 105.849 45.6757 105.849H40.5554C35.9217 105.849 32.1516 102.079 32.1516 97.4449V92.3246C32.1516 91.7031 31.6478 91.1993 31.0263 91.1993C30.4047 91.1993 29.901 91.7031 29.901 92.3246V97.4449C29.901 103.32 34.6807 108.1 40.5559 108.1H45.6762C46.2978 108.1 46.8015 107.596 46.8015 106.975Z" fill="#2D2D2D" stroke="#2D2D2D" stroke-width="0.2"/>
<path d="M81.4454 45.9002H76.3251C75.7036 45.9002 75.1998 46.404 75.1998 47.0255C75.1998 47.6471 75.7036 48.1508 76.3251 48.1508H81.4454C86.0791 48.1508 89.8493 51.921 89.8493 56.5547V61.6745C89.8493 62.296 90.353 62.7998 90.9746 62.7998C91.5961 62.7998 92.0998 62.296 92.0998 61.6745V56.5552C92.0998 50.68 87.3201 45.9002 81.4454 45.9002Z" fill="#2D2D2D" stroke="#2D2D2D" stroke-width="0.2"/>
</svg>
