<svg width="229" height="237" viewBox="0 0 229 237" fill="none" xmlns="http://www.w3.org/2000/svg">
<g clip-path="url(#clip0_505_5088)">
<mask id="path-1-inside-1_505_5088" fill="white">
<path fill-rule="evenodd" clip-rule="evenodd" d="M207.756 207.023C240.673 177.48 229.772 110.953 183.243 58.0859C136.714 5.219 72.1104 -14.0434 38.6261 14.8546L38.623 14.8542L38.3209 15.12C38.2965 15.1415 38.2721 15.1629 38.2476 15.1844C38.2232 15.2059 38.1988 15.2274 38.1744 15.249L21.3575 30.0497L29.9136 24.5425C7.25523 57.1511 20.1244 116.437 62.3851 164.455C104.646 212.472 161.818 232.767 197.04 214.434L190.491 222.222L207.756 207.026L207.756 207.023Z"/>
</mask>
<path fill-rule="evenodd" clip-rule="evenodd" d="M207.756 207.023C240.673 177.48 229.772 110.953 183.243 58.0859C136.714 5.219 72.1104 -14.0434 38.6261 14.8546L38.623 14.8542L38.3209 15.12C38.2965 15.1415 38.2721 15.1629 38.2476 15.1844C38.2232 15.2059 38.1988 15.2274 38.1744 15.249L21.3575 30.0497L29.9136 24.5425C7.25523 57.1511 20.1244 116.437 62.3851 164.455C104.646 212.472 161.818 232.767 197.04 214.434L190.491 222.222L207.756 207.026L207.756 207.023Z" fill="#F5F5F5"/>
<path d="M207.756 207.023L206.42 205.534L205.753 206.133L205.756 207.028L207.756 207.023ZM38.6261 14.8546L38.3668 16.8377L39.2548 16.9538L39.9328 16.3687L38.6261 14.8546ZM38.623 14.8542L38.8822 12.8711L37.9827 12.7535L37.3016 13.3529L38.623 14.8542ZM38.3209 15.12L39.6395 16.6239L39.6423 16.6214L38.3209 15.12ZM38.1744 15.249L39.4958 16.7503L39.4986 16.7478L38.1744 15.249ZM21.3575 30.0497L20.0362 28.5484L22.44 31.7315L21.3575 30.0497ZM29.9136 24.5425L31.556 25.6838L28.8311 22.8608L29.9136 24.5425ZM197.04 214.434L198.571 215.721L196.117 212.66L197.04 214.434ZM190.491 222.222L188.96 220.934L191.812 223.723L190.491 222.222ZM207.756 207.026L209.077 208.527L209.759 207.928L209.756 207.02L207.756 207.026ZM181.742 59.4073C204.797 85.6033 218.961 115.116 223.318 141.625C227.68 168.166 222.19 191.381 206.42 205.534L209.092 208.511C226.239 193.122 231.756 168.302 227.265 140.976C222.769 113.619 208.218 83.4354 184.745 56.7646L181.742 59.4073ZM39.9328 16.3687C55.9743 2.52441 79.6989 0.0268561 105.471 7.72477C131.211 15.4135 158.686 33.2112 181.742 59.4073L184.745 56.7646C161.271 30.0937 133.18 11.8268 106.615 3.89209C80.0817 -4.03342 54.7622 -1.71317 37.3194 13.3405L39.9328 16.3687ZM38.3637 16.8373L38.3668 16.8377L38.8853 12.8715L38.8822 12.8711L38.3637 16.8373ZM39.6423 16.6214L39.9443 16.3555L37.3016 13.3529L36.9996 13.6187L39.6423 16.6214ZM39.569 16.6858C39.5925 16.6651 39.616 16.6445 39.6395 16.6238L37.0024 13.6162C36.977 13.6385 36.9516 13.6608 36.9263 13.6831L39.569 16.6858ZM39.4986 16.7478C39.5221 16.7271 39.5455 16.7064 39.569 16.6858L36.9263 13.6831C36.9009 13.7054 36.8756 13.7277 36.8503 13.7501L39.4986 16.7478ZM22.6789 31.5511L39.4958 16.7503L36.8531 13.7476L20.0362 28.5484L22.6789 31.5511ZM28.8311 22.8608L20.2751 28.368L22.44 31.7315L30.9961 26.2243L28.8311 22.8608ZM63.8865 163.133C42.9492 139.344 29.3397 112.813 23.7548 88.2765C18.1623 63.7063 20.6564 41.3699 31.556 25.6838L28.2712 23.4013C16.5125 40.3237 14.112 63.9347 19.8546 89.1642C25.6049 114.428 39.5604 141.548 60.8838 165.776L63.8865 163.133ZM196.117 212.66C179.173 221.479 156.701 221.116 133.04 212.448C109.412 203.792 84.8239 186.923 63.8865 163.133L60.8838 165.776C82.2073 190.004 107.336 207.291 131.664 216.204C155.96 225.105 179.685 225.722 197.964 216.208L196.117 212.66ZM195.51 213.147L188.96 220.934L192.021 223.509L198.571 215.721L195.51 213.147ZM191.812 223.723L209.077 208.527L206.435 205.525L189.169 220.72L191.812 223.723ZM209.756 207.02L209.756 207.017L205.756 207.028L205.756 207.032L209.756 207.02Z" fill="#2D2D2D" mask="url(#path-1-inside-1_505_5088)"/>
<path d="M165.978 73.2815C189.225 99.6958 203.506 129.502 207.84 156.301C212.176 183.116 206.542 206.762 190.205 221.14C173.868 235.519 149.698 238.103 123.651 230.396C97.6191 222.694 69.8687 204.743 46.621 178.329C23.3734 151.915 9.09276 122.109 4.75923 95.3097C0.423184 68.4949 6.05647 44.8485 22.3935 30.47C38.7306 16.0915 62.901 13.5073 88.9479 21.2141C114.98 28.9164 142.73 46.8672 165.978 73.2815Z" fill="url(#paint0_linear_505_5088)" stroke="#2D2D2D" stroke-width="2"/>
</g>
<defs>
<linearGradient id="paint0_linear_505_5088" x1="21.7329" y1="29.7193" x2="190.866" y2="221.891" gradientUnits="userSpaceOnUse">
<stop stop-color="#20C8BF"/>
<stop offset="1" stop-color="#F8E07C"/>
</linearGradient>
<clipPath id="clip0_505_5088">
<rect width="229" height="237" fill="white"/>
</clipPath>
</defs>
</svg>
