<svg width="86" height="109" viewBox="0 0 86 109" fill="none" xmlns="http://www.w3.org/2000/svg">
<g clip-path="url(#clip0_505_5095)">
<path d="M3.11525 2.177L16.5926 99.9366L82.6151 62.7997L3.11525 2.177Z" fill="#F5F5F5" stroke="#2D2D2D" stroke-width="2"/>
<path d="M82.8845 63.7319C83.8758 65.4538 84.0604 67.6245 83.4101 70.1723C82.7582 72.7263 81.2807 75.5918 79.0532 78.5913C74.6001 84.5875 67.2677 90.9607 58.0952 96.2415C48.9226 101.522 39.7294 104.663 32.3079 105.504C28.5954 105.924 25.3755 105.763 22.8394 105.044C20.3096 104.327 18.525 103.078 17.5337 101.356C16.5424 99.6339 16.3578 97.4631 17.0081 94.9154C17.66 92.3614 19.1375 89.4959 21.3651 86.4964C25.8181 80.5001 33.1506 74.127 42.3231 68.8462C51.4956 63.5654 60.6888 60.4243 68.1103 59.5841C71.8228 59.1638 75.0427 59.3249 77.5788 60.0435C80.1086 60.7604 81.8932 62.01 82.8845 63.7319Z" fill="white"/>
<path d="M82.8845 63.7319C83.8758 65.4538 84.0604 67.6245 83.4101 70.1723C82.7582 72.7263 81.2807 75.5918 79.0532 78.5913C74.6001 84.5875 67.2677 90.9607 58.0952 96.2415C48.9226 101.522 39.7294 104.663 32.3079 105.504C28.5954 105.924 25.3755 105.763 22.8394 105.044C20.3096 104.327 18.525 103.078 17.5337 101.356C16.5424 99.6339 16.3578 97.4631 17.0081 94.9154C17.66 92.3614 19.1375 89.4959 21.3651 86.4964C25.8181 80.5001 33.1506 74.127 42.3231 68.8462C51.4956 63.5654 60.6888 60.4243 68.1103 59.5841C71.8228 59.1638 75.0427 59.3249 77.5788 60.0435C80.1086 60.7604 81.8932 62.01 82.8845 63.7319Z" fill="url(#paint0_linear_505_5095)"/>
<path d="M82.8845 63.7319C83.8758 65.4538 84.0604 67.6245 83.4101 70.1723C82.7582 72.7263 81.2807 75.5918 79.0532 78.5913C74.6001 84.5875 67.2677 90.9607 58.0952 96.2415C48.9226 101.522 39.7294 104.663 32.3079 105.504C28.5954 105.924 25.3755 105.763 22.8394 105.044C20.3096 104.327 18.525 103.078 17.5337 101.356C16.5424 99.6339 16.3578 97.4631 17.0081 94.9154C17.66 92.3614 19.1375 89.4959 21.3651 86.4964C25.8181 80.5001 33.1506 74.127 42.3231 68.8462C51.4956 63.5654 60.6888 60.4243 68.1103 59.5841C71.8228 59.1638 75.0427 59.3249 77.5788 60.0435C80.1086 60.7604 81.8932 62.01 82.8845 63.7319Z" stroke="#2D2D2D" stroke-width="2"/>
</g>
<defs>
<linearGradient id="paint0_linear_505_5095" x1="41.8241" y1="67.9795" x2="58.5941" y2="97.1081" gradientUnits="userSpaceOnUse">
<stop stop-color="#20C8BF"/>
<stop offset="1" stop-color="#F8E07C"/>
</linearGradient>
<clipPath id="clip0_505_5095">
<rect width="86" height="109" fill="white"/>
</clipPath>
</defs>
</svg>
