<svg width="14" height="16" viewBox="0 0 14 16" fill="none" xmlns="http://www.w3.org/2000/svg">
<path d="M6.99976 8C9.18726 8 10.9998 6.21875 10.9998 4C10.9998 1.8125 9.18726 0 6.99976 0C4.78101 0 2.99976 1.8125 2.99976 4C2.99976 6.21875 4.78101 8 6.99976 8ZM9.78101 9H9.24976C8.56226 9.34375 7.81226 9.5 6.99976 9.5C6.18726 9.5 5.40601 9.34375 4.71851 9H4.18726C1.87476 9 -0.000244141 10.9062 -0.000244141 13.2188V14.5C-0.000244141 15.3438 0.656006 16 1.49976 16H12.4998C13.3123 16 13.9998 15.3438 13.9998 14.5V13.2188C13.9998 10.9062 12.0935 9 9.78101 9Z" fill="#111111"/>
</svg>
