<svg width="43" height="42" viewBox="0 0 43 42" fill="none" xmlns="http://www.w3.org/2000/svg">
<path d="M1.5959 2.52822L18.6291 38.4081L39.3563 15.8428L1.5959 2.52822Z" fill="#F5F5F5" stroke="#2D2D2D"/>
<path d="M40.6281 16.2112C41.2267 16.758 41.5743 17.5869 41.6404 18.6853C41.7067 19.787 41.4858 21.1249 40.9809 22.6193C39.9718 25.6064 37.8598 29.1248 34.8692 32.446C31.8787 35.7672 28.6077 38.227 25.7542 39.5297C24.3266 40.1814 23.026 40.5331 21.931 40.574C20.8391 40.6148 19.9861 40.3471 19.3875 39.8004C18.7889 39.2536 18.4412 38.4247 18.3751 37.3263C18.3088 36.2247 18.5297 34.8868 19.0346 33.3923C20.0438 30.4052 22.1558 26.8868 25.1463 23.5656C28.1369 20.2444 31.4078 17.7846 34.2614 16.4819C35.6889 15.8303 36.9895 15.4785 38.0845 15.4376C39.1764 15.3968 40.0294 15.6645 40.6281 16.2112Z" fill="white"/>
<path d="M40.6281 16.2112C41.2267 16.758 41.5743 17.5869 41.6404 18.6853C41.7067 19.787 41.4858 21.1249 40.9809 22.6193C39.9718 25.6064 37.8598 29.1248 34.8692 32.446C31.8787 35.7672 28.6077 38.227 25.7542 39.5297C24.3266 40.1814 23.026 40.5331 21.931 40.574C20.8391 40.6148 19.9861 40.3471 19.3875 39.8004C18.7889 39.2536 18.4412 38.4247 18.3751 37.3263C18.3088 36.2247 18.5297 34.8868 19.0346 33.3923C20.0438 30.4052 22.1558 26.8868 25.1463 23.5656C28.1369 20.2444 31.4078 17.7846 34.2614 16.4819C35.6889 15.8303 36.9895 15.4785 38.0845 15.4376C39.1764 15.3968 40.0294 15.6645 40.6281 16.2112Z" fill="url(#paint0_linear_904_1302)"/>
<path d="M40.6281 16.2112C41.2267 16.758 41.5743 17.5869 41.6404 18.6853C41.7067 19.787 41.4858 21.1249 40.9809 22.6193C39.9718 25.6064 37.8598 29.1248 34.8692 32.446C31.8787 35.7672 28.6077 38.227 25.7542 39.5297C24.3266 40.1814 23.026 40.5331 21.931 40.574C20.8391 40.6148 19.9861 40.3471 19.3875 39.8004C18.7889 39.2536 18.4412 38.4247 18.3751 37.3263C18.3088 36.2247 18.5297 34.8868 19.0346 33.3923C20.0438 30.4052 22.1558 26.8868 25.1463 23.5656C28.1369 20.2444 31.4078 17.7846 34.2614 16.4819C35.6889 15.8303 36.9895 15.4785 38.0845 15.4376C39.1764 15.3968 40.0294 15.6645 40.6281 16.2112Z" stroke="#2D2D2D"/>
<defs>
<linearGradient id="paint0_linear_904_1302" x1="24.7771" y1="23.2284" x2="35.3056" y2="32.7086" gradientUnits="userSpaceOnUse">
<stop stop-color="#20C8BF"/>
<stop offset="1" stop-color="#F8E07C"/>
</linearGradient>
</defs>
</svg>
