<svg width="55" height="55" viewBox="0 0 55 55" fill="none" xmlns="http://www.w3.org/2000/svg">
<path fill-rule="evenodd" clip-rule="evenodd" d="M25.1392 0.0575126C17.0834 0.84287 9.55709 5.18543 4.96647 11.697C-0.907659 20.0293 -1.63143 31.2077 3.11614 40.275C5.22693 44.3063 8.4588 47.8991 12.2475 50.426C15.1775 52.3802 18.6127 53.8118 22.0218 54.4995C25.4001 55.1809 29.7251 55.1664 33.1759 54.4621C43.3522 52.3854 51.6595 44.4494 54.2183 34.3604C54.551 33.0489 54.8736 31.1615 54.9612 30.0149L53.252 29.8118C52.6834 35.7009 50.1858 41.1353 46.1038 45.3651C44.0771 47.4654 41.5564 49.3144 38.9856 50.587C38.1761 50.9877 37.363 51.3681 37.1787 51.4322L36.8436 51.549L37.1649 51.1496C37.3417 50.9297 38.6988 49.2996 40.1807 47.5269C41.6626 45.7542 42.9954 44.0621 43.1422 43.7667C43.436 43.1759 43.6232 42.1123 43.6264 41.0143L43.6285 40.3033L44.9447 39.725C46.0246 39.2507 46.3688 39.0407 46.8624 38.5549C47.559 37.8695 47.8682 37.1357 47.8579 36.1924C47.8416 34.7164 47.0043 33.8911 45.3721 33.7426L44.5497 33.6677L43.4709 31.6108C42.1484 29.0889 41.9331 28.7777 41.1463 28.2527C40.1744 27.604 39.7781 27.5438 36.48 27.5438C33.3369 27.5438 32.824 27.6197 32.15 28.184C31.4456 28.774 31.0179 28.9942 30.5796 28.9929C30.0869 28.9915 29.8505 28.8698 27.2432 27.2752L25.5743 26.2546L25.5718 24.8311L25.5692 23.4075H26.6881H27.8069L28.3634 24.1151C28.9552 24.8678 29.3821 25.1265 30.0322 25.1265C30.4504 25.1265 30.924 24.9229 31.1668 24.6389C31.2512 24.5401 32.095 23.0261 33.0418 21.2744L34.7633 18.0895L36.0517 18.0357C37.1619 17.9894 37.3867 17.9488 37.6771 17.7417C38.2188 17.3556 38.3612 16.8365 38.3612 15.2487V13.8628L38.6787 13.7931C39.3809 13.639 39.8665 12.9925 39.8657 12.2127C39.8651 11.3893 39.6434 11.1799 36.7737 9.28949C33.7784 7.31653 32.581 6.61186 31.7069 6.30814C31.0182 6.06877 24.1906 5.94919 24.1906 5.94919L24.2636 7.61445C24.2636 7.61445 27.3796 7.61499 27.9947 7.61725C29.2569 7.62187 30.7811 7.81063 31.3423 8.03174C32.0637 8.3159 33.0547 8.91507 35.7011 10.6671L37.9321 12.1442L37.4862 12.3799C36.7589 12.7642 36.6413 13.1065 36.6413 14.8378V16.3168H35.5295C34.5738 16.3168 34.3515 16.3518 33.9462 16.5659C33.5028 16.8002 33.3989 16.9555 32.2008 19.1712C31.5002 20.4671 30.7109 21.9255 30.447 22.412L29.9672 23.2967L29.5149 22.7446C28.7047 21.7552 28.6832 21.747 26.8082 21.708C25.3105 21.6769 25.1195 21.6943 24.7209 21.8974C23.9565 22.2872 23.8489 22.6494 23.851 24.8268C23.8534 27.3605 23.6886 27.1217 26.727 28.9954C28.0436 29.8073 29.3352 30.5316 29.5971 30.6049C30.7196 30.9189 31.9512 30.6185 32.9126 29.7961C33.5393 29.2599 34.1022 29.1815 36.9486 29.2334C39.6134 29.282 39.8354 29.3274 40.4721 29.9535C40.6576 30.1359 41.2559 31.1429 41.8019 32.1913C43.457 35.37 43.5214 35.4404 44.7754 35.4404C45.6162 35.4404 45.9675 35.5732 46.1088 35.9446C46.1935 36.1672 46.1794 36.3448 46.0504 36.6823C45.8222 37.2796 45.5533 37.5093 44.54 37.9723C41.8588 39.1974 42.0013 39.0351 41.9071 40.9733C41.8551 42.0452 41.7881 42.4825 41.6192 42.8535C41.4479 43.23 35.4121 50.6414 33.9547 52.2645C33.7203 52.5258 33.509 52.6253 32.9719 52.7273C32.5956 52.7988 32.203 52.882 32.0996 52.912C31.9275 52.9622 31.9115 52.8517 31.9115 51.6131V50.2593L32.7177 47.9461L33.5239 45.6328L33.5235 43.7865C33.5229 41.247 33.5358 41.2661 31.2576 40.4242C29.2452 39.6806 29.0396 39.5545 28.6483 38.8246C28.4344 38.4258 28.4173 38.2325 28.4108 36.1387C28.4068 34.7937 28.356 33.7435 28.2854 33.5382C27.841 32.2471 26.8478 31.0892 25.6793 30.4996C25.3431 30.33 23.7658 29.6998 22.1743 29.0991C20.5828 28.4984 19.27 27.9968 19.2569 27.9844C19.2438 27.972 18.9368 26.6109 18.5746 24.9596C18.1811 23.1651 17.8235 21.7908 17.6858 21.5437C17.2938 20.8399 17.0754 20.7799 14.7646 20.7407L12.7209 20.7059L11.677 18.3623L10.6331 16.0187L11.0126 15.1435C11.9201 13.0506 11.678 11.5901 10.1447 9.90671L9.44357 9.13704L10.2236 8.42194C10.6525 8.02873 11.4455 7.36907 11.9856 6.95619L12.9678 6.20554L14.6318 6.91L16.2958 7.61445H20.2797H24.2636L24.1906 5.94919L20.3382 5.89548L16.4858 5.84176L15.6492 5.47626L14.8127 5.11076L15.273 4.83605C15.5261 4.685 16.2896 4.31133 16.9695 4.00568C23.092 1.25306 29.9436 0.987049 36.265 3.25663C37.6085 3.73891 40.0633 4.94338 41.2511 5.70306L42.1524 6.27945L42.1744 7.34984C42.1931 8.25714 42.2577 8.60856 42.5982 9.65574C43.0292 10.9817 43.0191 10.8165 42.8131 13.1613C42.6338 15.2015 44.1891 17.3779 46.252 17.9734C46.8705 18.152 50.8652 19.047 51.5405 19.1583L51.9814 19.2311L52.2708 20.1638C52.7321 21.6508 53.2975 24.7418 53.3023 25.8028C53.3028 25.909 53.252 29.8118 53.252 29.8118L54.9612 30.0149C54.9612 30.0149 55.0417 25.9419 54.97 25.0939C54.661 21.4388 53.3535 17.1477 51.6335 14.1436C50.2308 11.6938 48.9269 9.99362 46.9137 7.98951C42.5325 3.62825 36.9766 0.894439 30.9739 0.14604C29.8348 0.00400944 26.2464 -0.0503532 25.1392 0.0575126ZM44.9598 8.52669C46.4711 9.84525 48.4157 12.2227 49.6181 14.2218C50.2408 15.2571 50.9606 16.6163 51.1505 17.1151L51.2417 17.3551L50.0957 17.1037C47.9646 16.6362 46.586 16.2867 46.2933 16.1396C45.689 15.8362 44.8547 14.8922 44.6522 14.2829C44.4768 13.7551 44.4716 13.6033 44.5969 12.6577C44.7771 11.2959 44.6984 10.5143 44.2295 9.01112C44.0176 8.33159 43.8441 7.73338 43.8438 7.68192C43.8434 7.56976 43.9906 7.68117 44.9598 8.52669ZM9.42046 11.7799C9.62664 12.0501 9.70092 12.3012 9.74134 12.8651C9.78971 13.5412 9.76187 13.6694 9.38607 14.5011C8.70916 15.999 8.70594 15.9764 10.0321 18.9523C10.6633 20.3686 11.2496 21.6355 11.335 21.7676C11.6982 22.33 11.9218 22.3831 14.1638 22.4406L16.2598 22.4943L16.9278 25.5167C17.2952 27.179 17.6736 28.6893 17.7686 28.873C17.8636 29.0567 18.0607 29.2852 18.2064 29.3806C18.3521 29.4761 19.8509 30.0764 21.5371 30.7147C24.8323 31.9621 25.3557 32.2145 25.8763 32.8071C26.6589 33.698 26.6933 33.8485 26.6981 36.4073C26.7021 38.5563 26.7195 38.7598 26.9478 39.3298C27.4694 40.6318 28.2314 41.1934 30.6484 42.0566L31.804 42.4694V43.8871V45.3049L31.0345 47.4366L30.2652 49.5682L30.2195 51.3574L30.1738 53.1467L29.8138 53.2143C29.1074 53.3466 25.625 53.2826 24.333 53.1134C18.5229 52.3525 13.3061 49.7659 9.17602 45.5983C5.29756 41.6847 2.8359 36.7458 1.96034 31.1211C1.69461 29.414 1.69289 25.648 1.95722 23.9447C2.69486 19.1897 4.52541 15.0136 7.50112 11.2969L8.20855 10.4135L8.68035 10.9209C8.93985 11.2 9.27298 11.5866 9.42046 11.7799Z" fill="white"/>
</svg>
