<svg width="66" height="66" viewBox="0 0 66 66" fill="none" xmlns="http://www.w3.org/2000/svg">
<rect x="1.23644" y="0.689698" width="50.8007" height="50.8005" transform="matrix(0.9623 -0.271991 0.274144 0.961689 0.0526062 15.3078)" stroke="white" stroke-width="2"/>
<path d="M32.3997 35.1058C33.3643 34.8292 33.9236 33.8224 33.6456 32.8609L32.7284 29.6891C32.6448 29.3999 32.3419 29.2336 32.0524 29.3166C31.7628 29.3996 31.5952 29.7009 31.6788 29.9901L32.596 33.1619C32.707 33.5459 32.4838 33.9488 32.0974 34.0596C31.8078 34.1426 31.6402 34.4438 31.7238 34.733L31.8197 34.7055L31.7238 34.7329C31.8072 35.0225 32.1101 35.1888 32.3997 35.1058Z" fill="white" stroke="white" stroke-width="0.2"/>
<path d="M27.388 31.5523L27.7408 32.7722C27.839 33.1118 28.195 33.3074 28.5352 33.2099C28.8754 33.1123 29.0724 32.7581 28.9742 32.4185L28.6214 31.1987C28.5232 30.859 28.1672 30.6635 27.827 30.761C27.4868 30.8586 27.2898 31.2127 27.388 31.5523Z" fill="white" stroke="white" stroke-width="0.2"/>
<path d="M37.1104 30.7514C37.4506 30.6538 37.6476 30.2996 37.5494 29.96L37.1966 28.7402C37.0984 28.4006 36.7424 28.205 36.4022 28.3025C36.062 28.4001 35.865 28.7542 35.9632 29.0938L36.316 30.3137C36.4142 30.6533 36.7702 30.8489 37.1104 30.7514Z" fill="white" stroke="white" stroke-width="0.2"/>
<path d="M30.9265 37.5747L30.9265 37.5747C30.6503 37.4542 30.3284 37.5794 30.2073 37.8543L30.2072 37.8543C30.0861 38.1297 30.2119 38.4509 30.4886 38.5715C31.8521 39.1667 33.3323 39.2351 34.6808 38.8484C36.0291 38.4618 37.2462 37.6198 38.0831 36.3938L38.0832 36.3937C38.2523 36.1454 38.1876 35.8067 37.9377 35.6377C37.6883 35.4688 37.3487 35.5332 37.1792 35.7817C35.8014 37.8006 33.1715 38.5547 30.9265 37.5747Z" fill="white" stroke="white" stroke-width="0.2"/>
<path d="M18.1437 30.1146L18.1438 30.1146C18.2276 30.4035 18.5304 30.5698 18.8199 30.4868C19.1095 30.4037 19.2771 30.1025 19.1935 29.8133L18.5771 27.6815C18.0279 25.7825 19.1327 23.7918 21.0404 23.2447L23.1813 22.6308C23.4708 22.5478 23.6385 22.2466 23.5549 21.9574C23.4712 21.6682 23.1684 21.5019 22.8788 21.5849L20.7379 22.1988C18.2517 22.9117 16.8111 25.506 17.5273 27.9828L18.1437 30.1146Z" fill="white" stroke="white" stroke-width="0.2"/>
<path d="M47.9491 35.3879L47.9491 35.3878C47.8653 35.0988 47.5625 34.9325 47.2729 35.0155C46.9833 35.0985 46.8157 35.3998 46.8993 35.689L47.5158 37.821C48.0649 39.72 46.9602 41.7107 45.0525 42.2577L42.9116 42.8716C42.622 42.9547 42.4544 43.2559 42.538 43.5451C42.6216 43.8343 42.9245 44.0006 43.2141 43.9176L45.3549 43.3037C47.8411 42.5908 49.2818 39.9964 48.5656 37.5197L47.9491 35.3879Z" fill="white" stroke="white" stroke-width="0.2"/>
<path d="M30.7724 46.9188L30.7724 46.9187C30.6885 46.6295 30.3857 46.4631 30.0961 46.5462L27.9552 47.1601C26.0475 47.7071 24.0488 46.6063 23.4996 44.7073L22.8831 42.5753C22.7995 42.2861 22.4966 42.1197 22.2071 42.2028C21.9175 42.2858 21.7499 42.5871 21.8335 42.8762L22.45 45.0082C23.1662 47.485 25.7717 48.9191 28.2579 48.2062L30.3988 47.5923C30.6884 47.5093 30.856 47.208 30.7724 46.9188Z" fill="white" stroke="white" stroke-width="0.2"/>
<path d="M37.8343 17.296L35.6934 17.9099C35.4038 17.9929 35.2362 18.2942 35.3198 18.5834C35.4034 18.8726 35.7063 19.0389 35.9958 18.9559L38.1367 18.342C40.0445 17.7949 42.0432 18.8958 42.5923 20.7948L43.2088 22.9266C43.2924 23.2158 43.5953 23.3821 43.8848 23.2991C44.1744 23.216 44.342 22.9148 44.2584 22.6256L43.642 20.494C42.9258 18.0173 40.3203 16.5832 37.8343 17.296Z" fill="white" stroke="white" stroke-width="0.2"/>
</svg>
