<svg width="53" height="56" viewBox="0 0 53 56" fill="none" xmlns="http://www.w3.org/2000/svg">
<path fill-rule="evenodd" clip-rule="evenodd" d="M30.8848 16.1286C30.8848 19.0463 30.0691 21.771 28.6559 24.0817L51 51.6813C50.0839 52.2996 48.1601 53.6291 47.7937 54.0001L37.7167 51.2175L37.2587 43.7975L31.7622 43.3337L32.2202 37.305L24.8916 35.9137L20.7468 30.4583C19.239 30.9764 17.6231 31.2573 15.9424 31.2573C7.68994 31.2573 1 24.484 1 16.1286C1 7.77333 7.68994 1 15.9424 1C24.1949 1 30.8848 7.77333 30.8848 16.1286ZM15.9425 22.6212C19.484 22.6212 22.355 19.7144 22.355 16.1287C22.355 12.543 19.484 9.63618 15.9425 9.63618C12.4009 9.63618 9.52991 12.543 9.52991 16.1287C9.52991 19.7144 12.4009 22.6212 15.9425 22.6212Z" fill="white"/>
<path d="M28.6559 24.0817L27.8028 23.56L27.4345 24.1623L27.8787 24.711L28.6559 24.0817ZM51 51.6813L51.5594 52.5102L52.4636 51.8999L51.7772 51.0521L51 51.6813ZM47.7937 54.0001L47.5275 54.964L48.093 55.1201L48.5052 54.7028L47.7937 54.0001ZM37.7167 51.2175L36.7186 51.2791L36.7626 51.9914L37.4505 52.1814L37.7167 51.2175ZM37.2587 43.7975L38.2568 43.7359L38.2035 42.8737L37.3427 42.801L37.2587 43.7975ZM31.7622 43.3337L30.765 43.258L30.6899 44.2468L31.6781 44.3302L31.7622 43.3337ZM32.2202 37.305L33.2173 37.3807L33.2851 36.4893L32.4067 36.3225L32.2202 37.305ZM24.8916 35.9137L24.0953 36.5187L24.3277 36.8245L24.7051 36.8962L24.8916 35.9137ZM20.7468 30.4583L21.543 29.8534L21.1056 29.2777L20.4218 29.5126L20.7468 30.4583ZM29.509 24.6035C31.0158 22.1396 31.8848 19.235 31.8848 16.1286H29.8848C29.8848 18.8576 29.1223 21.4024 27.8028 23.56L29.509 24.6035ZM51.7772 51.0521L29.4331 23.4525L27.8787 24.711L50.2228 52.3105L51.7772 51.0521ZM48.5052 54.7028C48.5048 54.7032 48.5074 54.7005 48.5138 54.6946C48.5201 54.6887 48.5288 54.6808 48.5401 54.6708C48.5632 54.6506 48.5935 54.625 48.6317 54.5938C48.7083 54.5312 48.8067 54.4544 48.9242 54.3654C49.159 54.1875 49.4534 53.9737 49.7703 53.7484C50.4031 53.2983 51.1061 52.8162 51.5594 52.5102L50.4405 50.8525C49.9778 51.1648 49.2608 51.6565 48.6112 52.1185C48.2868 52.3492 47.9742 52.576 47.7167 52.771C47.4788 52.9512 47.2323 53.1454 47.0822 53.2973L48.5052 54.7028ZM37.4505 52.1814L47.5275 54.964L48.0599 53.0361L37.9829 50.2536L37.4505 52.1814ZM36.2606 43.8591L36.7186 51.2791L38.7148 51.1559L38.2568 43.7359L36.2606 43.8591ZM31.6781 44.3302L37.1746 44.7939L37.3427 42.801L31.8462 42.3373L31.6781 44.3302ZM31.2231 37.2292L30.765 43.258L32.7593 43.4095L33.2173 37.3807L31.2231 37.2292ZM24.7051 36.8962L32.0337 38.2874L32.4067 36.3225L25.0781 34.9313L24.7051 36.8962ZM19.9505 31.0633L24.0953 36.5187L25.6878 35.3088L21.543 29.8534L19.9505 31.0633ZM15.9424 32.2573C17.7352 32.2573 19.4609 31.9575 21.0717 31.4041L20.4218 29.5126C19.0171 29.9952 17.5109 30.2573 15.9424 30.2573V32.2573ZM0 16.1286C0 25.0245 7.12601 32.2573 15.9424 32.2573V30.2573C8.25387 30.2573 2 23.9434 2 16.1286H0ZM15.9424 0C7.12601 0 0 7.23276 0 16.1286H2C2 8.3139 8.25387 2 15.9424 2V0ZM31.8848 16.1286C31.8848 7.23276 24.7588 0 15.9424 0V2C23.6309 2 29.8848 8.3139 29.8848 16.1286H31.8848ZM21.355 16.1287C21.355 19.1738 18.9201 21.6212 15.9425 21.6212V23.6212C20.048 23.6212 23.355 20.255 23.355 16.1287H21.355ZM15.9425 10.6362C18.9201 10.6362 21.355 13.0835 21.355 16.1287H23.355C23.355 12.0024 20.048 8.63618 15.9425 8.63618V10.6362ZM10.5299 16.1287C10.5299 13.0835 12.9648 10.6362 15.9425 10.6362V8.63618C11.837 8.63618 8.52991 12.0024 8.52991 16.1287H10.5299ZM15.9425 21.6212C12.9648 21.6212 10.5299 19.1738 10.5299 16.1287H8.52991C8.52991 20.255 11.837 23.6212 15.9425 23.6212V21.6212Z" fill="#2D2D2D"/>
</svg>
