<svg width="96" height="99" viewBox="0 0 96 99" fill="none" xmlns="http://www.w3.org/2000/svg">
<path d="M64.4794 61.0231C58.4236 69.67 50.6329 75.8264 42.9763 78.8189C35.3117 81.8146 27.9018 81.6065 22.4139 77.7631C16.9259 73.9197 14.1973 67.0274 14.3923 58.8004C14.5872 50.5821 17.7094 41.1562 23.7651 32.5093C29.8208 23.8624 37.6116 17.706 45.2682 14.7135C52.9328 11.7178 60.3427 11.9259 65.8306 15.7693C71.3186 19.6127 74.0472 26.505 73.8521 34.732C73.6573 42.9503 70.5351 52.3763 64.4794 61.0231Z" stroke="white" stroke-width="2"/>
<path d="M72.4735 66.4435C66.4178 75.0904 58.6271 81.2468 50.9704 84.2393C43.3058 87.235 35.896 87.027 30.408 83.1835C24.9201 79.3401 22.1914 72.4478 22.3865 64.2208C22.5813 56.0025 25.7035 46.5766 31.7592 37.9297C37.815 29.2828 45.6057 23.1264 53.2623 20.1339C60.9269 17.1382 68.3368 17.3463 73.8248 21.1897C79.3127 25.0331 82.0413 31.9255 81.8463 40.1524C81.6515 48.3707 78.5293 57.7967 72.4735 66.4435Z" stroke="white" stroke-width="2"/>
</svg>
