<svg width="107" height="105" viewBox="0 0 107 105" fill="none" xmlns="http://www.w3.org/2000/svg">
<path d="M23.1361 54.6042L86.0899 83.1597L60.2453 20.6753" stroke="white" stroke-width="2"/>
<path d="M19.2395 52.8167C18.3021 51.8445 17.8127 50.4492 17.8354 48.6415C17.8581 46.8269 18.3997 44.66 19.4528 42.2695C21.5578 37.4913 25.6292 31.9961 31.1961 26.9594C36.7629 21.9226 42.7 18.3624 47.7646 16.6538C50.2983 15.799 52.5669 15.4233 54.4373 15.5251C56.3006 15.6264 57.7042 16.1945 58.6417 17.1667C59.5791 18.139 60.0684 19.5343 60.0458 21.342C60.023 23.1565 59.4815 25.3235 58.4284 27.7139C56.3234 32.4921 52.2519 37.9874 46.6851 43.0241C41.1182 48.0608 35.1812 51.621 30.1166 53.3297C27.5829 54.1845 25.3142 54.5601 23.4438 54.4584C21.5805 54.3571 20.1769 53.789 19.2395 52.8167Z" stroke="white" stroke-width="2"/>
</svg>
