<svg width="45" height="56" viewBox="0 0 45 56" fill="none" xmlns="http://www.w3.org/2000/svg">
<path fill-rule="evenodd" clip-rule="evenodd" d="M18.4701 1.00061C11.2368 1.00061 5.37305 6.86438 5.37305 14.0977V24.4762H31.5672V14.0977C31.5672 6.86437 25.7034 1.00061 18.4701 1.00061ZM18.4701 5.69568C13.8333 5.69568 10.0745 9.4545 10.0745 14.0912V24.4762H26.8656V14.0912C26.8656 9.4545 23.1068 5.69568 18.4701 5.69568Z" fill="#FBFBFB"/>
<path d="M5.37305 24.4762H4.37305V25.4762H5.37305V24.4762ZM31.5672 24.4762V25.4762H32.5672V24.4762H31.5672ZM10.0745 24.4762H9.07449V25.4762H10.0745V24.4762ZM26.8656 24.4762V25.4762H27.8656V24.4762H26.8656ZM6.37305 14.0977C6.37305 7.41666 11.7891 2.00061 18.4701 2.00061V0.000610352C10.6845 0.000610352 4.37305 6.31209 4.37305 14.0977H6.37305ZM6.37305 24.4762V14.0977H4.37305V24.4762H6.37305ZM31.5672 23.4762H5.37305V25.4762H31.5672V23.4762ZM30.5672 14.0977V24.4762H32.5672V14.0977H30.5672ZM18.4701 2.00061C25.1512 2.00061 30.5672 7.41665 30.5672 14.0977H32.5672C32.5672 6.31208 26.2557 0.000610352 18.4701 0.000610352V2.00061ZM11.0745 14.0912C11.0745 10.0068 14.3856 6.69568 18.4701 6.69568V4.69568C13.281 4.69568 9.07449 8.90221 9.07449 14.0912H11.0745ZM11.0745 24.4762V14.0912H9.07449V24.4762H11.0745ZM26.8656 23.4762H10.0745V25.4762H26.8656V23.4762ZM25.8656 14.0912V24.4762H27.8656V14.0912H25.8656ZM18.4701 6.69568C22.5545 6.69568 25.8656 10.0068 25.8656 14.0912H27.8656C27.8656 8.90222 23.6591 4.69568 18.4701 4.69568V6.69568Z" fill="#2D2D2D"/>
<rect x="1" y="22.7933" width="34.9405" height="32.2073" fill="#FBFBFB" stroke="#2D2D2D" stroke-width="2"/>
<path fill-rule="evenodd" clip-rule="evenodd" d="M21.4502 40.1943C23.1721 39.2779 24.3442 37.4665 24.3442 35.3816C24.3442 32.3719 21.9016 29.932 18.8884 29.932C15.8753 29.932 13.4326 32.3719 13.4326 35.3816C13.4326 37.4026 14.5341 39.1667 16.1701 40.1076L15.4475 47.2458H22.164L21.4502 40.1943Z" fill="#2D2D2D"/>
<ellipse cx="36.8402" cy="22.7407" rx="8.15999" ry="8.14266" fill="#2D2D2D"/>
<path d="M32.8687 22.6913L35.4216 25.2388L40.1249 20.5455" stroke="#FBFBFB" stroke-width="2"/>
</svg>
