<svg width="20" height="20" viewBox="0 0 20 20" fill="none" xmlns="http://www.w3.org/2000/svg">
<path d="M8.09297 1.73169L7.78544 1.05422L7.15539 1.44993L4.11949 3.35666L3.52864 3.72775L3.94059 4.29088L6.6015 7.92824L2.04884 7.61101L1.35366 7.56257V8.25943V11.8242V12.5211L2.04884 12.4726L6.58347 12.1567L3.90334 15.7462L3.47252 16.3232L4.09047 16.6929L7.20842 18.5582L7.83523 18.9331L8.1349 18.267L10.0134 14.0916L11.9578 18.2744L12.2607 18.9258L12.8787 18.5595L15.9556 16.7357L16.575 16.3686L16.1466 15.7898L13.4576 12.1568L17.9582 12.4726L18.6537 12.5214V11.8242V8.25943V7.56223L17.9582 7.61103L13.4399 7.92805L16.1093 4.24726L16.5238 3.67578L15.9201 3.30981L12.8432 1.44453L12.217 1.06493L11.9144 1.73169L10.0037 5.9408L8.09297 1.73169Z" stroke="white" stroke-width="1.3"/>
</svg>
