<svg width="45" height="56" viewBox="0 0 45 56" fill="none" xmlns="http://www.w3.org/2000/svg">
<path fill-rule="evenodd" clip-rule="evenodd" d="M18.4704 1C11.2371 1 5.37329 6.86377 5.37329 14.0971V24.4756H31.5674V14.0971C31.5674 6.86376 25.7037 1 18.4704 1ZM18.4703 5.69507C13.8336 5.69507 10.0747 9.45389 10.0747 14.0906V24.4756H26.8659V14.0906C26.8659 9.45389 23.107 5.69507 18.4703 5.69507Z" fill="#FBFBFB"/>
<path d="M5.37329 24.4756H4.37329V25.4756H5.37329V24.4756ZM31.5674 24.4756V25.4756H32.5674V24.4756H31.5674ZM10.0747 24.4756H9.07473V25.4756H10.0747V24.4756ZM26.8659 24.4756V25.4756H27.8659V24.4756H26.8659ZM6.37329 14.0971C6.37329 7.41605 11.7893 2 18.4704 2V0C10.6848 0 4.37329 6.31148 4.37329 14.0971H6.37329ZM6.37329 24.4756V14.0971H4.37329V24.4756H6.37329ZM31.5674 23.4756H5.37329V25.4756H31.5674V23.4756ZM30.5674 14.0971V24.4756H32.5674V14.0971H30.5674ZM18.4704 2C25.1514 2 30.5674 7.41604 30.5674 14.0971H32.5674C32.5674 6.31147 26.256 0 18.4704 0V2ZM11.0747 14.0906C11.0747 10.0062 14.3858 6.69507 18.4703 6.69507V4.69507C13.2813 4.69507 9.07473 8.9016 9.07473 14.0906H11.0747ZM11.0747 24.4756V14.0906H9.07473V24.4756H11.0747ZM26.8659 23.4756H10.0747V25.4756H26.8659V23.4756ZM25.8659 14.0906V24.4756H27.8659V14.0906H25.8659ZM18.4703 6.69507C22.5548 6.69507 25.8659 10.0062 25.8659 14.0906H27.8659C27.8659 8.90161 23.6593 4.69507 18.4703 4.69507V6.69507Z" fill="#2D2D2D"/>
<rect x="1" y="22.7927" width="34.9405" height="32.2073" fill="#FBFBFB" stroke="#2D2D2D" stroke-width="2"/>
<path fill-rule="evenodd" clip-rule="evenodd" d="M21.4504 40.1937C23.1724 39.2773 24.3445 37.4659 24.3445 35.381C24.3445 32.3713 21.9018 29.9314 18.8887 29.9314C15.8755 29.9314 13.4329 32.3713 13.4329 35.381C13.4329 37.402 14.5343 39.1661 16.1703 40.107L15.4478 47.2452H22.1642L21.4504 40.1937Z" fill="#2D2D2D"/>
<ellipse cx="36.8402" cy="22.7401" rx="8.15999" ry="8.14266" fill="url(#paint0_linear_750_3429)"/>
<path d="M32.8687 22.6907L35.4216 25.2382L40.1249 20.5449" stroke="#FBFBFB" stroke-width="2"/>
<defs>
<linearGradient id="paint0_linear_750_3429" x1="28.6802" y1="14.5974" x2="46.5811" y2="16.5754" gradientUnits="userSpaceOnUse">
<stop stop-color="#49E4DC"/>
<stop offset="1" stop-color="#FFE578"/>
</linearGradient>
</defs>
</svg>
