<svg width="68" height="56" viewBox="0 0 68 56" fill="none" xmlns="http://www.w3.org/2000/svg">
<path fill-rule="evenodd" clip-rule="evenodd" d="M1.88453 33.942C1.81451 33.8894 1.81472 33.8891 1.81472 33.8891L1.81541 33.8882L1.81779 33.885L1.82647 33.8735L1.85951 33.8302C1.88844 33.7924 1.93116 33.737 1.98733 33.6651C2.09965 33.5214 2.26576 33.3118 2.48298 33.0458C2.91738 32.514 3.55641 31.7562 4.37852 30.8479C6.02209 29.0318 8.40087 26.6101 11.3427 24.187C17.2104 19.3539 25.3949 14.4524 34.4961 14.4524C43.5973 14.4524 51.7818 19.3539 57.6496 24.187C60.5913 26.6101 62.9701 29.0318 64.6137 30.8479C65.4358 31.7562 66.0748 32.514 66.5092 33.0458C66.7265 33.3118 66.8926 33.5214 67.0049 33.6651C67.0611 33.737 67.1038 33.7924 67.1327 33.8302L67.1657 33.8735L67.1744 33.885L67.1768 33.8882L67.1775 33.8891C67.1775 33.8891 67.1777 33.8894 67.1077 33.942C67.1824 33.9965 67.1822 33.9968 67.1822 33.9968L67.1815 33.9977L67.1791 34.001L67.1704 34.0127L67.1375 34.0573C67.1085 34.0962 67.0659 34.1532 67.0097 34.2272C66.8975 34.375 66.7314 34.5907 66.5143 34.8644C66.08 35.4117 65.4411 36.1916 64.6191 37.1265C62.9758 38.9956 60.5973 41.4884 57.6558 43.9825C51.7894 48.9565 43.6029 54.0048 34.4961 54.0048C25.3894 54.0048 17.2028 48.9565 11.3365 43.9825C8.3949 41.4884 6.01638 38.9956 4.3731 37.1265C3.55113 36.1916 2.91224 35.4117 2.47797 34.8644C2.26081 34.5907 2.09475 34.375 1.98249 34.2272C1.92636 34.1532 1.88367 34.0962 1.85476 34.0573L1.82177 34.0127L1.81311 34.001L1.81075 33.9977L1.81006 33.9968C1.81006 33.9968 1.80985 33.9965 1.88453 33.942Z" fill="white"/>
<line x1="34.2563" y1="9.64917" x2="34.2563" y2="1.00044" stroke="#2D2D2D" stroke-width="2" stroke-linecap="round"/>
<line x1="1" y1="-1" x2="9.64826" y2="-1" transform="matrix(-0.301467 -0.953477 0.953978 -0.299876 26.895 11.4099)" stroke="#2D2D2D" stroke-width="2" stroke-linecap="round"/>
<line x1="1" y1="-1" x2="9.64826" y2="-1" transform="matrix(0.301467 -0.953477 -0.953978 -0.299876 41.3374 11.4099)" stroke="#2D2D2D" stroke-width="2" stroke-linecap="round"/>
<line x1="1" y1="-1" x2="7.36534" y2="-1" transform="matrix(0.613663 -0.789568 0.791293 0.611437 49.699 15.2131)" stroke="#2D2D2D" stroke-width="2" stroke-linecap="round"/>
<line x1="1" y1="-1" x2="7.36534" y2="-1" transform="matrix(-0.613663 -0.789568 -0.791293 0.611437 18.5334 14.4524)" stroke="#2D2D2D" stroke-width="2" stroke-linecap="round"/>
<ellipse cx="34.4959" cy="30.4255" rx="11.4021" ry="11.4094" fill="#2D2D2D"/>
<path d="M23.8011 16.4952C19.3847 19.8492 16.6397 25.3419 16.9458 31.4054C17.4319 41.033 25.4262 48.4539 34.8017 47.9804C44.1771 47.5069 51.3834 39.3183 50.8973 29.6907C50.5912 23.6273 47.3069 18.4391 42.5752 15.547" stroke="#2D2D2D" stroke-width="2" stroke-linecap="round"/>
<path d="M34.2566 26.2423C34.2566 28.001 32.8319 29.4257 31.0758 29.4257C29.3197 29.4257 27.895 28.001 27.895 26.2423C27.895 24.4835 29.3197 23.0588 31.0758 23.0588C32.8319 23.0588 34.2566 24.4835 34.2566 26.2423Z" fill="white" stroke="#2D2D2D" stroke-width="2"/>
<path fill-rule="evenodd" clip-rule="evenodd" d="M1.28636 33.8414C1.00628 33.6341 1.00645 33.6339 1.00665 33.6336L1.0075 33.6325L1.01019 33.6288L1.01959 33.6162L1.0543 33.57C1.08446 33.53 1.12863 33.4718 1.18645 33.3967C1.3021 33.2465 1.47243 33.0284 1.69471 32.7522C2.1392 32.1998 2.79186 31.4143 3.63086 30.4733C5.30769 28.5927 7.73496 26.0843 10.7381 23.5735C16.7155 18.5761 25.1137 13.4526 34.4963 13.4526C43.8788 13.4526 52.277 18.5761 58.2544 23.5735C61.2576 26.0843 63.6848 28.5927 65.3617 30.4733C66.2007 31.4143 66.8533 32.1998 67.2978 32.7522C67.5201 33.0284 67.6904 33.2465 67.8061 33.3967C67.8639 33.4718 67.9081 33.53 67.9382 33.57L67.9729 33.6162L67.9823 33.6288L67.985 33.6325L67.9859 33.6336C67.9861 33.6339 67.9862 33.6341 67.7062 33.8414C67.9968 34.0485 67.9966 34.0487 67.9964 34.049L67.9956 34.0502L67.9929 34.0539L67.9836 34.0669L67.949 34.1148C67.9189 34.1563 67.8748 34.2166 67.817 34.2945C67.7015 34.4503 67.5313 34.6766 67.3092 34.9632C66.865 35.5365 66.2127 36.3518 65.374 37.3286C63.6978 39.2808 61.2712 41.885 58.2686 44.4918C52.2948 49.6784 43.8918 55.0051 34.4963 55.0051C25.1007 55.0051 16.6978 49.6784 10.7239 44.4918C7.72131 41.885 5.29469 39.2808 3.61854 37.3286C2.77987 36.3518 2.12752 35.5365 1.68334 34.9632C1.46121 34.6766 1.29102 34.4503 1.17551 34.2945C1.11776 34.2166 1.07366 34.1563 1.04356 34.1148L1.00896 34.0669L0.99961 34.0539L0.996938 34.0502L0.996104 34.049C0.995907 34.0487 0.995739 34.0485 1.28636 33.8414ZM65.6277 33.8675C65.2063 33.3479 64.6145 32.6405 63.8689 31.8043C62.2395 29.9769 59.8821 27.5412 56.9716 25.1079C51.1219 20.2173 43.177 15.4526 34.4963 15.4526C25.8155 15.4526 17.8707 20.2173 12.0209 25.1079C9.11041 27.5412 6.75304 29.9769 5.12364 31.8043C4.37806 32.6405 3.78619 33.3479 3.36479 33.8675C3.78717 34.4087 4.3833 35.1492 5.13595 36.0257C6.76604 37.9242 9.12406 40.4542 12.0351 42.9816C17.8884 48.0635 25.8285 53.0051 34.4963 53.0051C43.164 53.0051 51.1041 48.0635 56.9574 42.9816C59.8685 40.4542 62.2265 37.9242 63.8566 36.0257C64.6092 35.1492 65.2054 34.4087 65.6277 33.8675Z" fill="#2D2D2D"/>
</svg>
