<svg width="77" height="71" viewBox="0 0 77 71" fill="none" xmlns="http://www.w3.org/2000/svg">
<path d="M30.7008 48.8074C23.7 44.7996 18.4934 39.3015 15.7099 33.6984C12.9227 28.0879 12.6079 22.4873 15.1387 18.1038C17.6695 13.7204 22.6884 11.1732 28.9599 10.7487C35.2232 10.3247 42.6145 12.0386 49.6154 16.0465C56.6163 20.0543 61.8228 25.5524 64.6063 31.1555C67.3935 36.766 67.7083 42.3666 65.1776 46.7501C62.6468 51.1335 57.6278 53.6807 51.3563 54.1052C45.093 54.5292 37.7017 52.8153 30.7008 48.8074Z" stroke="white" stroke-width="2"/>
<path d="M26.8193 54.8478C19.8184 50.84 14.6118 45.3419 11.8283 39.7388C9.04114 34.1283 8.72634 28.5277 11.2571 24.1443C13.7879 19.7608 18.8068 17.2136 25.0784 16.7891C31.3416 16.3651 38.7329 18.079 45.7338 22.0869C52.7347 26.0947 57.9412 31.5928 60.7248 37.1959C63.5119 42.8064 63.8267 48.407 61.296 52.7905C58.7652 57.1739 53.7462 59.7211 47.4747 60.1456C41.2114 60.5696 33.8201 58.8557 26.8193 54.8478Z" stroke="white" stroke-width="2"/>
</svg>
