<svg width="55" height="54" viewBox="0 0 55 54" fill="none" xmlns="http://www.w3.org/2000/svg">
<path d="M7.61761 7.54121C2.72455 12.4599 0.0739881 18.8299 0.180157 25.7218L0.180335 25.7334L0.180246 28.143L0.175506 28.185C0.116461 28.7077 0.533155 29.1802 1.07137 29.1802H1.18078C1.60355 29.1802 2.09284 28.7944 2.1813 28.1617V25.6324C2.07008 19.2983 4.44654 13.3986 8.96987 8.94965C13.7177 4.27984 20.1517 1.84469 27.0121 1.95504C35.3438 2.06612 43.2242 6.16179 48.0683 12.9191C48.367 13.3287 49.0056 13.4918 49.5636 13.1621C49.9686 12.8632 50.1155 12.2596 49.7919 11.7328C44.5707 4.51491 36.0491 0.116205 26.9924 0.0114073L26.98 0.0112639C19.5257 -0.198216 12.7226 2.52168 7.61761 7.54121Z" fill="url(#paint0_linear_1264_1798)"/>
<path d="M22.356 9.5696C21.8727 9.69505 21.4855 10.2652 21.6036 10.8155C21.7259 11.2715 22.3041 11.6753 22.8941 11.5513C24.2457 11.2196 25.7256 10.9942 27.1105 10.9942H27.1194L27.1283 10.9944C36.5721 11.2182 44.3727 18.6082 44.4904 27.6561C44.6004 31.9941 44.38 36.3331 43.8287 40.5654C43.776 41.0605 44.1701 41.579 44.771 41.6629H44.8346C45.3515 41.6629 45.7811 41.2794 45.841 40.8129C46.3834 36.4378 46.6003 32.0632 46.4918 27.689L46.4915 27.6781C46.3867 17.5762 37.6722 9.26231 27.103 9.05065H26.7823C25.3241 9.05065 23.8517 9.25501 22.356 9.5696Z" fill="url(#paint1_linear_1264_1798)"/>
<path d="M53.5967 20.6909C53.3519 20.5361 53.0944 20.4932 52.8911 20.5432L52.8816 20.5455L52.8721 20.5476C52.2168 20.6908 51.9107 21.2049 52.0212 21.6942L52.0225 21.6998C52.3547 23.2245 52.5819 24.7701 52.5866 26.4333C52.6969 27.2316 52.6951 28.1199 52.5877 29.0005C52.6119 29.4977 53.0965 29.9334 53.5872 29.9334C54.1695 29.9334 54.5878 29.5043 54.5878 28.9617V28.9142L54.5938 28.8671C54.6952 28.069 54.6952 27.2717 54.5938 26.4736L54.5878 26.4265V26.379C54.5878 24.7253 54.3782 22.9544 54.059 21.2727C53.9992 21.0606 53.8356 20.842 53.5967 20.6909Z" fill="url(#paint2_linear_1264_1798)"/>
<path d="M27.4445 18.1977C24.4303 18.3035 22.0028 19.2188 20.0872 21.1028C18.2565 22.9035 17.2566 25.2854 17.3567 27.7475L17.357 27.7551L17.3572 27.7627C17.4678 33.2026 16.9148 38.7479 15.8093 43.9672L15.8072 43.9771C15.6748 44.5632 16.0951 45.0646 16.48 45.112L16.5146 45.1162L16.5486 45.1237C17.1468 45.2544 17.6103 44.9503 17.7352 44.4018C18.9254 38.9732 19.4668 33.3297 19.3585 27.7926L19.3584 27.7853V27.778C19.3584 25.7656 20.0832 23.8453 21.5518 22.4008C23.743 20.2457 26.6319 20.141 27.4387 20.141H27.4487L27.4586 20.1412C31.8874 20.259 35.4053 23.7935 35.4096 27.9855C35.5192 33.5029 35.1899 38.9245 34.1983 44.3532C34.1582 44.7478 34.4617 45.2626 35.0772 45.4292H35.2067C35.7957 45.4292 36.1621 45.0878 36.2132 44.6857L36.2147 44.6739L36.2166 44.6621C37.085 39.2169 37.5197 33.5557 37.5201 28.0005C37.415 22.7254 32.9537 18.3082 27.4445 18.1977Z" fill="url(#paint3_linear_1264_1798)"/>
<path d="M28.1077 27.7895C27.8844 27.6037 27.6208 27.5293 27.4208 27.5539L27.3752 27.5595H27.3293C26.889 27.5595 26.4406 27.955 26.4382 28.5267C26.548 36.4546 25.4439 44.2687 23.3498 51.8594L23.2391 52.2948L23.2356 52.3069C23.1785 52.5034 23.1919 52.8339 23.3354 53.0925C23.4493 53.2979 23.6631 53.4999 24.1565 53.4999C24.629 53.4999 24.9624 53.2527 25.0774 52.857L25.0882 52.8197L25.3054 52.2855C27.4676 44.5092 28.5475 36.6305 28.4393 28.4335L28.4392 28.4236C28.4392 28.203 28.3262 27.9713 28.1077 27.7895Z" fill="url(#paint4_linear_1264_1798)"/>
<path d="M12.256 15.7805C9.63282 18.9842 8.17175 23.0037 8.2762 27.1133C8.38692 31.4692 7.94533 35.8164 7.17521 39.938C7.12577 40.4781 7.47785 40.9682 7.95782 41.1248H8.18225C8.72661 41.1248 9.14113 40.7129 9.19121 40.3681L9.1927 40.3578L9.19447 40.3476C9.95417 35.9711 10.3857 31.6095 10.2777 27.1505L10.2775 27.1414V27.1323C10.2775 23.4206 11.4239 19.9132 13.8395 16.9715L13.8648 16.9407L13.8932 16.9128C14.1763 16.6344 14.211 16.07 13.7169 15.6535C13.2797 15.2849 12.6553 15.3297 12.256 15.7805Z" fill="url(#paint5_linear_1264_1798)"/>
<defs>
<linearGradient id="paint0_linear_1264_1798" x1="27.4199" y1="0" x2="27.4199" y2="53.4999" gradientUnits="userSpaceOnUse">
<stop stop-color="#20C8BF"/>
<stop offset="1" stop-color="#F8E07C"/>
</linearGradient>
<linearGradient id="paint1_linear_1264_1798" x1="27.4199" y1="0" x2="27.4199" y2="53.4999" gradientUnits="userSpaceOnUse">
<stop stop-color="#20C8BF"/>
<stop offset="1" stop-color="#F8E07C"/>
</linearGradient>
<linearGradient id="paint2_linear_1264_1798" x1="27.4199" y1="0" x2="27.4199" y2="53.4999" gradientUnits="userSpaceOnUse">
<stop stop-color="#20C8BF"/>
<stop offset="1" stop-color="#F8E07C"/>
</linearGradient>
<linearGradient id="paint3_linear_1264_1798" x1="27.4199" y1="0" x2="27.4199" y2="53.4999" gradientUnits="userSpaceOnUse">
<stop stop-color="#20C8BF"/>
<stop offset="1" stop-color="#F8E07C"/>
</linearGradient>
<linearGradient id="paint4_linear_1264_1798" x1="27.4199" y1="0" x2="27.4199" y2="53.4999" gradientUnits="userSpaceOnUse">
<stop stop-color="#20C8BF"/>
<stop offset="1" stop-color="#F8E07C"/>
</linearGradient>
<linearGradient id="paint5_linear_1264_1798" x1="27.4199" y1="0" x2="27.4199" y2="53.4999" gradientUnits="userSpaceOnUse">
<stop stop-color="#20C8BF"/>
<stop offset="1" stop-color="#F8E07C"/>
</linearGradient>
</defs>
</svg>
