<svg width="68" height="56" viewBox="0 0 68 56" fill="none" xmlns="http://www.w3.org/2000/svg">
<path fill-rule="evenodd" clip-rule="evenodd" d="M1.88453 33.9413C1.81451 33.8886 1.81472 33.8884 1.81472 33.8884L1.81541 33.8874L1.81779 33.8843L1.82647 33.8728L1.85951 33.8295C1.88844 33.7917 1.93116 33.7362 1.98733 33.6644C2.09965 33.5206 2.26576 33.3111 2.48298 33.0451C2.91738 32.5133 3.55641 31.7555 4.37852 30.8471C6.02209 29.0311 8.40087 26.6093 11.3427 24.1863C17.2104 19.3532 25.3949 14.4517 34.4961 14.4517C43.5973 14.4517 51.7818 19.3532 57.6496 24.1863C60.5913 26.6093 62.9701 29.0311 64.6137 30.8471C65.4358 31.7555 66.0748 32.5133 66.5092 33.0451C66.7265 33.3111 66.8926 33.5206 67.0049 33.6644C67.0611 33.7362 67.1038 33.7917 67.1327 33.8295L67.1657 33.8728L67.1744 33.8843L67.1768 33.8874L67.1775 33.8884C67.1775 33.8884 67.1777 33.8886 67.1077 33.9413C67.1824 33.9958 67.1822 33.9961 67.1822 33.9961L67.1815 33.997L67.1791 34.0002L67.1704 34.012L67.1375 34.0566C67.1085 34.0955 67.0659 34.1525 67.0097 34.2264C66.8975 34.3743 66.7314 34.5899 66.5143 34.8636C66.08 35.411 65.4411 36.1909 64.6191 37.1258C62.9758 38.9949 60.5973 41.4876 57.6558 43.9818C51.7894 48.9558 43.6029 54.0041 34.4961 54.0041C25.3894 54.0041 17.2028 48.9558 11.3365 43.9818C8.3949 41.4876 6.01638 38.9949 4.3731 37.1258C3.55113 36.1909 2.91224 35.411 2.47797 34.8636C2.26081 34.5899 2.09475 34.3743 1.98249 34.2264C1.92636 34.1525 1.88367 34.0955 1.85476 34.0566L1.82177 34.012L1.81311 34.0002L1.81075 33.997L1.81006 33.9961C1.81006 33.9961 1.80985 33.9958 1.88453 33.9413Z" fill="white"/>
<line x1="34.2563" y1="9.64844" x2="34.2563" y2="0.999707" stroke="#2D2D2D" stroke-width="2" stroke-linecap="round"/>
<line x1="1" y1="-1" x2="9.64826" y2="-1" transform="matrix(-0.301467 -0.953477 0.953978 -0.299876 26.895 11.4092)" stroke="#2D2D2D" stroke-width="2" stroke-linecap="round"/>
<line x1="1" y1="-1" x2="9.64826" y2="-1" transform="matrix(0.301467 -0.953477 -0.953978 -0.299876 41.3374 11.4092)" stroke="#2D2D2D" stroke-width="2" stroke-linecap="round"/>
<line x1="1" y1="-1" x2="7.36534" y2="-1" transform="matrix(0.613663 -0.789568 0.791293 0.611437 49.699 15.2124)" stroke="#2D2D2D" stroke-width="2" stroke-linecap="round"/>
<line x1="1" y1="-1" x2="7.36534" y2="-1" transform="matrix(-0.613663 -0.789568 -0.791293 0.611437 18.5334 14.4517)" stroke="#2D2D2D" stroke-width="2" stroke-linecap="round"/>
<ellipse cx="34.4959" cy="30.4247" rx="11.4021" ry="11.4094" fill="#2D2D2D"/>
<path d="M41.8574 31.1855C41.8574 35.2547 38.5609 38.5523 34.4958 38.5523C30.4308 38.5523 27.1343 35.2547 27.1343 31.1855C27.1343 27.1163 30.4308 23.8186 34.4958 23.8186C38.5609 23.8186 41.8574 27.1163 41.8574 31.1855Z" fill="white"/>
<path d="M41.8574 31.1855C41.8574 35.2547 38.5609 38.5523 34.4958 38.5523C30.4308 38.5523 27.1343 35.2547 27.1343 31.1855C27.1343 27.1163 30.4308 23.8186 34.4958 23.8186C38.5609 23.8186 41.8574 27.1163 41.8574 31.1855Z" fill="url(#paint0_linear_750_3399)"/>
<path d="M41.8574 31.1855C41.8574 35.2547 38.5609 38.5523 34.4958 38.5523C30.4308 38.5523 27.1343 35.2547 27.1343 31.1855C27.1343 27.1163 30.4308 23.8186 34.4958 23.8186C38.5609 23.8186 41.8574 27.1163 41.8574 31.1855Z" stroke="#2D2D2D" stroke-width="2"/>
<path d="M23.8011 16.4944C19.3847 19.8485 16.6397 25.3412 16.9458 31.4046C17.4319 41.0322 25.4262 48.4531 34.8017 47.9797C44.1771 47.5062 51.3834 39.3176 50.8973 29.69C50.5912 23.6265 47.3069 18.4384 42.5752 15.5463" stroke="#2D2D2D" stroke-width="2" stroke-linecap="round"/>
<path d="M34.2566 26.2415C34.2566 28.0003 32.8319 29.425 31.0758 29.425C29.3197 29.425 27.895 28.0003 27.895 26.2415C27.895 24.4828 29.3197 23.0581 31.0758 23.0581C32.8319 23.0581 34.2566 24.4828 34.2566 26.2415Z" fill="white" stroke="#2D2D2D" stroke-width="2"/>
<path fill-rule="evenodd" clip-rule="evenodd" d="M1.28636 33.8407C1.00628 33.6334 1.00645 33.6332 1.00665 33.6329L1.0075 33.6317L1.01019 33.6281L1.01959 33.6155L1.0543 33.5693C1.08446 33.5293 1.12863 33.4711 1.18645 33.396C1.3021 33.2458 1.47243 33.0277 1.69471 32.7515C2.1392 32.1991 2.79186 31.4135 3.63086 30.4726C5.30769 28.592 7.73496 26.0836 10.7381 23.5728C16.7155 18.5754 25.1137 13.4519 34.4963 13.4519C43.8788 13.4519 52.277 18.5754 58.2544 23.5728C61.2576 26.0836 63.6848 28.592 65.3617 30.4726C66.2007 31.4135 66.8533 32.1991 67.2978 32.7515C67.5201 33.0277 67.6904 33.2458 67.8061 33.396C67.8639 33.4711 67.9081 33.5293 67.9382 33.5693L67.9729 33.6155L67.9823 33.6281L67.985 33.6317L67.9859 33.6329C67.9861 33.6332 67.9862 33.6334 67.7062 33.8407C67.9968 34.0478 67.9966 34.048 67.9964 34.0483L67.9956 34.0494L67.9929 34.0532L67.9836 34.0662L67.949 34.1141C67.9189 34.1555 67.8748 34.2158 67.817 34.2937C67.7015 34.4495 67.5313 34.6758 67.3092 34.9625C66.865 35.5358 66.2127 36.3511 65.374 37.3279C63.6978 39.28 61.2712 41.8842 58.2686 44.4911C52.2948 49.6776 43.8918 55.0044 34.4963 55.0044C25.1007 55.0044 16.6978 49.6776 10.7239 44.4911C7.72131 41.8842 5.29469 39.28 3.61854 37.3279C2.77987 36.3511 2.12752 35.5358 1.68334 34.9625C1.46121 34.6758 1.29102 34.4495 1.17551 34.2937C1.11776 34.2158 1.07366 34.1555 1.04356 34.1141L1.00896 34.0662L0.99961 34.0532L0.996938 34.0494L0.996104 34.0483C0.995907 34.048 0.995739 34.0478 1.28636 33.8407ZM65.6277 33.8668C65.2063 33.3472 64.6145 32.6398 63.8689 31.8036C62.2395 29.9762 59.8821 27.5405 56.9716 25.1072C51.1219 20.2165 43.177 15.4519 34.4963 15.4519C25.8155 15.4519 17.8707 20.2165 12.0209 25.1072C9.11041 27.5405 6.75304 29.9762 5.12364 31.8036C4.37806 32.6398 3.78619 33.3472 3.36479 33.8668C3.78717 34.408 4.3833 35.1484 5.13595 36.025C6.76604 37.9235 9.12406 40.4535 12.0351 42.9809C17.8884 48.0627 25.8285 53.0044 34.4963 53.0044C43.164 53.0044 51.1041 48.0627 56.9574 42.9809C59.8685 40.4535 62.2265 37.9235 63.8566 36.025C64.6092 35.1484 65.2054 34.408 65.6277 33.8668Z" fill="#2D2D2D"/>
<defs>
<linearGradient id="paint0_linear_750_3399" x1="34.4958" y1="22.8186" x2="34.4958" y2="39.5523" gradientUnits="userSpaceOnUse">
<stop stop-color="#20C8BF"/>
<stop offset="1" stop-color="#F8E07C"/>
</linearGradient>
</defs>
</svg>
