<svg width="81" height="82" viewBox="0 0 81 82" fill="none" xmlns="http://www.w3.org/2000/svg">
<path d="M43.734 54.1873C31.3671 47.0404 16.6676 38.2614 6.20406 31.1143L52.1791 18.5982L65.1689 66.3129C63.9996 65.6661 62.3724 64.7629 60.3872 63.6527C56.1452 61.2805 50.2693 57.9641 43.734 54.1873Z" stroke="white" stroke-width="2"/>
<circle cx="48.5917" cy="28.6175" r="2" transform="rotate(74.771 48.5917 28.6175)" fill="white"/>
<circle cx="24.3558" cy="34.4878" r="2" transform="rotate(74.771 24.3558 34.4878)" fill="white"/>
<circle cx="36.974" cy="31.0525" r="2" transform="rotate(74.771 36.974 31.0525)" fill="white"/>
<circle cx="51.0272" cy="41.2356" r="2" transform="rotate(74.771 51.0272 41.2356)" fill="white"/>
<circle cx="39.4091" cy="44.6707" r="2" transform="rotate(74.771 39.4091 44.6707)" fill="white"/>
<circle cx="54.4623" cy="53.8538" r="2" transform="rotate(74.771 54.4623 53.8538)" fill="white"/>
<path d="M76.5526 52.6215L62.814 2.15576L14.2769 15.3694" stroke="white" stroke-width="2"/>
<path d="M62.814 2.15576L52.5283 17.9879" stroke="white" stroke-width="1.5"/>
<path d="M76.6167 52.2249L66.331 68.057" stroke="white" stroke-width="2"/>
<path d="M14.5688 15.1694L4.28313 31.0016" stroke="white" stroke-width="2"/>
</svg>
