<svg width="53" height="56" viewBox="0 0 53 56" fill="none" xmlns="http://www.w3.org/2000/svg">
<path fill-rule="evenodd" clip-rule="evenodd" d="M31 16C31 18.9464 30.1505 21.6943 28.6831 24.0123L51 51.6515C50.0746 52.2778 48.1314 53.6242 47.7612 54L37.582 51.1817L37.1193 43.6666L31.5671 43.1969L32.0298 37.0908L24.6269 35.6817L20.5475 30.2983C19.1132 30.7541 17.5853 31 16 31C7.71573 31 1 24.2843 1 16C1 7.71573 7.71573 1 16 1C24.2843 1 31 7.71573 31 16ZM16.5 23C20.0899 23 23 20.0899 23 16.5C23 12.9101 20.0899 10 16.5 10C12.9101 10 10 12.9101 10 16.5C10 20.0899 12.9101 23 16.5 23Z" fill="white"/>
<path d="M28.6831 24.0123L27.8382 23.4774L27.4549 24.0829L27.9051 24.6405L28.6831 24.0123ZM51 51.6515L51.5605 52.4797L52.4616 51.8699L51.778 51.0233L51 51.6515ZM47.7612 54L47.4944 54.9637L48.061 55.1206L48.4736 54.7018L47.7612 54ZM37.582 51.1817L36.5839 51.2432L36.6278 51.9552L37.3152 52.1455L37.582 51.1817ZM37.1193 43.6666L38.1175 43.6051L38.0644 42.743L37.2036 42.6701L37.1193 43.6666ZM31.5671 43.1969L30.57 43.1213L30.4951 44.1098L31.4828 44.1933L31.5671 43.1969ZM32.0298 37.0908L33.027 37.1664L33.0945 36.2755L32.2168 36.1085L32.0298 37.0908ZM24.6269 35.6817L23.8298 36.2857L24.0621 36.5922L24.4399 36.6641L24.6269 35.6817ZM20.5475 30.2983L21.3446 29.6943L20.9179 29.1313L20.2447 29.3452L20.5475 30.2983ZM29.528 24.5472C31.0937 22.0739 32 19.1413 32 16H30C30 18.7515 29.2073 21.3147 27.8382 23.4774L29.528 24.5472ZM51.778 51.0233L29.4611 23.3841L27.9051 24.6405L50.222 52.2797L51.778 51.0233ZM48.4736 54.7018C48.4733 54.702 48.4761 54.6993 48.4827 54.6931C48.4891 54.6871 48.4979 54.6791 48.5095 54.6689C48.5329 54.6483 48.5636 54.6222 48.6023 54.5906C48.6798 54.5271 48.7793 54.4492 48.8981 54.359C49.1354 54.1788 49.4329 53.9622 49.753 53.7339C50.3923 53.278 51.1025 52.7897 51.5605 52.4797L50.4395 50.8234C49.9722 51.1396 49.248 51.6376 48.5918 52.1055C48.2642 52.3391 47.9486 52.5687 47.6885 52.7662C47.4481 52.9487 47.1998 53.145 47.0488 53.2982L48.4736 54.7018ZM37.3152 52.1455L47.4944 54.9637L48.028 53.0363L37.8489 50.218L37.3152 52.1455ZM36.1212 43.728L36.5839 51.2432L38.5801 51.1203L38.1175 43.6051L36.1212 43.728ZM31.4828 44.1933L37.0351 44.663L37.2036 42.6701L31.6514 42.2005L31.4828 44.1933ZM31.0327 37.0153L30.57 43.1213L32.5643 43.2724L33.027 37.1664L31.0327 37.0153ZM24.4399 36.6641L31.8428 38.0732L32.2168 36.1085L24.8138 34.6994L24.4399 36.6641ZM19.7505 30.9022L23.8298 36.2857L25.4239 35.0778L21.3446 29.6943L19.7505 30.9022ZM16 32C17.6893 32 19.3193 31.7379 20.8504 31.2513L20.2447 29.3452C18.9071 29.7703 17.4813 30 16 30V32ZM0 16C0 24.8366 7.16344 32 16 32V30C8.26801 30 2 23.732 2 16H0ZM16 0C7.16344 0 0 7.16344 0 16H2C2 8.26801 8.26801 2 16 2V0ZM32 16C32 7.16344 24.8366 0 16 0V2C23.732 2 30 8.26801 30 16H32ZM22 16.5C22 19.5376 19.5376 22 16.5 22V24C20.6421 24 24 20.6421 24 16.5H22ZM16.5 11C19.5376 11 22 13.4624 22 16.5H24C24 12.3579 20.6421 9 16.5 9V11ZM11 16.5C11 13.4624 13.4624 11 16.5 11V9C12.3579 9 9 12.3579 9 16.5H11ZM16.5 22C13.4624 22 11 19.5376 11 16.5H9C9 20.6421 12.3579 24 16.5 24V22Z" fill="#2D2D2D"/>
<circle cx="16.5" cy="16.5" r="5.5" fill="url(#paint0_linear_906_1197)"/>
<defs>
<linearGradient id="paint0_linear_906_1197" x1="11" y1="11" x2="23.0662" y2="12.3305" gradientUnits="userSpaceOnUse">
<stop stop-color="#49E4DC"/>
<stop offset="1" stop-color="#FFE578"/>
</linearGradient>
</defs>
</svg>
