<svg width="56" height="55" viewBox="0 0 56 55" fill="none" xmlns="http://www.w3.org/2000/svg">
<path d="M7.68595 8.02284C2.74799 12.9875 0.0731078 19.417 0.180251 26.3734L0.180431 26.3851L0.180341 28.8172L0.175557 28.8596C0.115971 29.3871 0.536488 29.8641 1.07964 29.8641H1.19005C1.6167 29.8641 2.11049 29.4747 2.19976 28.8361V26.2832C2.08752 19.8898 4.48578 13.935 9.05062 9.44444C13.8421 4.73098 20.3351 2.27306 27.2584 2.38445C35.6666 2.49657 43.6193 6.63052 48.5079 13.451C48.8093 13.8644 49.4537 14.0291 50.0169 13.6963C50.4256 13.3946 50.5738 12.7853 50.2473 12.2536C44.9781 4.96825 36.3783 0.528424 27.2385 0.422647L27.226 0.422502C19.7033 0.211064 12.8377 2.95638 7.68595 8.02284Z" fill="#2D2D2D"/>
<path d="M22.5595 10.0702C22.0718 10.1968 21.6811 10.7723 21.8002 11.3277C21.9237 11.788 22.5072 12.1956 23.1026 12.0704C24.4666 11.7357 25.9601 11.5081 27.3577 11.5081H27.3667L27.3756 11.5083C36.9061 11.7342 44.7784 19.1933 44.8971 28.3258C45.0081 32.7043 44.7857 37.0839 44.2294 41.3557C44.1762 41.8555 44.5739 42.3788 45.1802 42.4634H45.2444C45.7661 42.4634 46.1996 42.0764 46.26 41.6055C46.8074 37.1895 47.0263 32.7741 46.9169 28.3589L46.9166 28.348C46.8108 18.1516 38.0163 9.76003 27.3502 9.54639H27.0265C25.5549 9.54639 24.069 9.75265 22.5595 10.0702Z" fill="#2D2D2D"/>
<path d="M54.087 21.2954C53.8399 21.1392 53.58 21.0959 53.3748 21.1463L53.3653 21.1487L53.3557 21.1508C52.6944 21.2953 52.3855 21.8142 52.497 22.3081L52.4983 22.3138C52.8335 23.8527 53.0628 25.4128 53.0676 27.0915C53.1789 27.8972 53.1771 28.7939 53.0687 29.6827C53.0931 30.1846 53.5822 30.6244 54.0774 30.6244C54.665 30.6244 55.0871 30.1912 55.0871 29.6435V29.5956L55.0932 29.5481C55.1955 28.7425 55.1955 27.9378 55.0932 27.1322L55.0871 27.0847V27.0368C55.0871 25.3676 54.8757 23.5801 54.5535 21.8827C54.4931 21.6686 54.3281 21.4479 54.087 21.2954Z" fill="#2D2D2D"/>
<path d="M27.6948 18.7789C24.6529 18.8858 22.2031 19.8096 20.27 21.7112C18.4225 23.5287 17.4133 25.9329 17.5144 28.418L17.5147 28.4257L17.5149 28.4334C17.6265 33.9241 17.0685 39.5213 15.9528 44.7893L15.9507 44.7993C15.8171 45.3909 16.2412 45.897 16.6297 45.9448L16.6646 45.9491L16.6989 45.9566C17.3026 46.0886 17.7704 45.7816 17.8964 45.228C19.0975 39.7487 19.6438 34.0524 19.5346 28.4636L19.5344 28.4562V28.4488C19.5344 26.4176 20.2659 24.4793 21.748 23.0214C23.9593 20.8461 26.8747 20.7404 27.6889 20.7404H27.699L27.709 20.7406C32.1784 20.8595 35.7287 24.427 35.733 28.6583C35.8436 34.2272 35.5112 39.6995 34.5105 45.179C34.4701 45.5772 34.7763 46.0969 35.3975 46.265H35.5282C36.1226 46.265 36.4924 45.9204 36.5439 45.5146L36.5455 45.5026L36.5473 45.4908C37.4237 39.9946 37.8625 34.2805 37.8628 28.6734C37.7568 23.349 33.2545 18.8905 27.6948 18.7789Z" fill="#2D2D2D"/>
<path d="M28.3641 28.4604C28.1387 28.2728 27.8727 28.1978 27.6709 28.2226L27.6249 28.2282H27.5785C27.1342 28.2282 26.6816 28.6275 26.6792 29.2045C26.7901 37.2065 25.6758 45.0936 23.5625 52.7553L23.4508 53.1947L23.4472 53.207C23.3896 53.4054 23.4032 53.7389 23.5479 54C23.6629 54.2073 23.8786 54.4111 24.3766 54.4111C24.8535 54.4111 25.1899 54.1616 25.3059 53.7622L25.3169 53.7245L25.5361 53.1854C27.7181 45.3364 28.8079 37.3841 28.6987 29.1105L28.6986 29.1005C28.6986 28.8777 28.5845 28.6439 28.3641 28.4604Z" fill="#2D2D2D"/>
<path d="M12.3669 16.3391C9.71966 19.5728 8.24517 23.6299 8.35058 27.7778C8.46232 32.1745 8.01668 36.5623 7.23949 40.7225C7.1896 41.2676 7.54491 41.7623 8.02928 41.9204H8.25577C8.80513 41.9204 9.22345 41.5046 9.27399 41.1566L9.27549 41.1462L9.27728 41.1359C10.0439 36.7185 10.4794 32.3161 10.3705 27.8154L10.3702 27.8062V27.7971C10.3702 24.0506 11.5271 20.5104 13.965 17.5413L13.9905 17.5102L14.0192 17.482C14.3048 17.201 14.3398 16.6314 13.8412 16.2109C13.4 15.8389 12.7699 15.8841 12.3669 16.3391Z" fill="#2D2D2D"/>
</svg>
